<svg width="26" height="30" viewBox="0 0 26 30" fill="none" xmlns="http://www.w3.org/2000/svg">
<path d="M22.4963 17.4459H20.1404H3.50365C1.63768 17.4459 0.119629 18.964 0.119629 20.83C0.119629 22.696 1.63773 24.214 3.50365 24.214H5.48717L5.23117 24.422C4.93639 24.6615 4.80373 25.0408 4.88494 25.4117C4.96615 25.7828 5.24512 26.072 5.61303 26.1664L5.74598 26.2005L5.08984 28.7569C5.00939 29.0704 5.1983 29.3897 5.51172 29.4701L7.50443 29.9816C7.55242 29.994 7.60135 30 7.6501 30C7.75416 30 7.85734 29.9722 7.9484 29.9184C8.08217 29.8392 8.17902 29.7102 8.21764 29.5597L8.87383 27.0032L9.00678 27.0374C9.37469 27.1318 9.75842 27.0127 10.0083 26.7266C10.2581 26.4405 10.3244 26.0443 10.1815 25.6925L9.58047 24.214H20.1404H22.4963V24.214C24.3623 24.214 25.8804 22.696 25.8804 20.83C25.8804 18.964 24.3622 17.4459 22.4963 17.4459ZM5.87289 25.7058L5.87266 25.7067C5.87277 25.7064 5.87283 25.7059 5.87295 25.7056C5.87289 25.7057 5.87289 25.7058 5.87289 25.7058ZM8.67086 25.7413C8.49971 25.6973 8.3217 25.7226 8.16953 25.8126C8.01742 25.9025 7.90949 26.0463 7.86566 26.2173L7.22822 28.7009L6.37053 28.4807L7.00791 25.9974C7.05191 25.8262 7.0266 25.6481 6.93654 25.4959C6.84648 25.3438 6.70264 25.2359 6.53189 25.1923L6.23518 25.1161L7.3457 24.214L8.07467 23.6218L8.31537 24.214L8.96711 25.8173L8.67086 25.7413ZM19.5544 23.0422H9.1041L8.86234 22.4474C8.79238 22.2754 8.64508 22.1467 8.46519 22.1006C8.28519 22.0543 8.09418 22.0962 7.95004 22.2133L6.92969 23.0422H3.50365C2.28385 23.0422 1.2915 22.0497 1.2915 20.83C1.2915 19.6102 2.28391 18.6178 3.50365 18.6178H19.5545V23.0422H19.5544ZM22.4963 23.0422H20.7263V18.6178H22.4963C23.7162 18.6178 24.7085 19.6102 24.7085 20.83C24.7084 22.0497 23.716 23.0422 22.4963 23.0422Z" fill="white"/>
<path d="M22.8361 19.4877C22.6354 19.2339 22.2669 19.1907 22.0131 19.3915C21.7592 19.5922 21.7162 19.9607 21.9169 20.2145L22.3115 20.7137L21.9169 21.2128C21.7162 21.4667 21.7593 21.8352 22.0131 22.0358C22.1207 22.1209 22.2488 22.1622 22.3761 22.1622C22.5491 22.1621 22.7204 22.0859 22.8361 21.9396L23.5181 21.0771C23.6866 20.8641 23.6866 20.5632 23.5181 20.3503L22.8361 19.4877Z" fill="white"/>
<path d="M3.68223 21.0539C3.69687 21.0896 3.71504 21.1236 3.73613 21.1553C3.75781 21.1875 3.78242 21.2174 3.80938 21.2443C3.83633 21.2713 3.86621 21.296 3.89844 21.317C3.93008 21.3381 3.96406 21.3562 3.99922 21.3709C4.03496 21.3855 4.07129 21.3967 4.10879 21.4043C4.14688 21.4119 4.18496 21.416 4.22363 21.416C4.26172 21.416 4.2998 21.4119 4.33789 21.4043C4.37539 21.3967 4.4123 21.3855 4.44746 21.3709C4.48262 21.3562 4.51719 21.3381 4.54883 21.317C4.58047 21.296 4.61094 21.2713 4.63789 21.2443C4.66484 21.2174 4.68945 21.1875 4.71055 21.1553C4.73164 21.1236 4.7498 21.0896 4.76445 21.0539C4.7791 21.0188 4.79023 20.9819 4.79785 20.9444C4.80547 20.9068 4.80957 20.8682 4.80957 20.8301C4.80957 20.7921 4.80547 20.7533 4.79785 20.7153C4.79023 20.6784 4.7791 20.6415 4.76445 20.6057C4.7498 20.5705 4.73164 20.5366 4.71055 20.5049C4.68945 20.4727 4.66484 20.4428 4.63789 20.4158C4.61094 20.3889 4.58047 20.3643 4.54883 20.3426C4.51719 20.3215 4.48262 20.3033 4.44746 20.2887C4.4123 20.274 4.37539 20.2629 4.33789 20.2553C4.14746 20.2173 3.94531 20.2793 3.80938 20.4158C3.78242 20.4428 3.75781 20.4727 3.73613 20.5049C3.71504 20.5366 3.69687 20.5705 3.68223 20.6057C3.66758 20.6415 3.65645 20.6784 3.64883 20.7153C3.64121 20.7533 3.6377 20.7921 3.6377 20.8301C3.6377 20.8682 3.64121 20.9069 3.64883 20.9444C3.65645 20.9819 3.66758 21.0188 3.68223 21.0539Z" fill="white"/>
<path d="M6.79844 21.0539C6.81309 21.0897 6.83125 21.1237 6.85234 21.1553C6.87402 21.1875 6.89863 21.2174 6.92559 21.2444C6.95254 21.2714 6.98242 21.296 7.01465 21.317C7.04629 21.3381 7.08027 21.3563 7.11543 21.3709C7.15117 21.3856 7.18809 21.3967 7.225 21.4043C7.26309 21.4119 7.30176 21.416 7.33984 21.416C7.37793 21.416 7.4166 21.4119 7.4541 21.4043C7.4916 21.3967 7.52852 21.3856 7.56367 21.3709C7.59941 21.3563 7.6334 21.3381 7.66504 21.317C7.69727 21.296 7.72715 21.2714 7.7541 21.2444C7.78106 21.2174 7.80566 21.1875 7.82676 21.1553C7.84785 21.1237 7.86602 21.0897 7.88066 21.0539C7.89531 21.0188 7.90645 20.9819 7.91406 20.9444C7.92168 20.9069 7.92578 20.8682 7.92578 20.8302C7.92578 20.7921 7.92168 20.7534 7.91406 20.7153C7.90645 20.6784 7.89531 20.6415 7.88066 20.6058C7.86602 20.5705 7.84785 20.5366 7.82676 20.505C7.80566 20.4727 7.78106 20.4428 7.7541 20.4159C7.61816 20.2793 7.41602 20.2172 7.225 20.2553C7.18809 20.2629 7.15117 20.2741 7.11543 20.2887C7.08027 20.3034 7.04629 20.3215 7.01465 20.3426C6.98242 20.3643 6.95254 20.3889 6.92559 20.4159C6.89863 20.4428 6.87402 20.4727 6.85234 20.505C6.83125 20.5366 6.81309 20.5705 6.79844 20.6058C6.78379 20.6415 6.77266 20.6784 6.76504 20.7153C6.75742 20.7534 6.75391 20.7921 6.75391 20.8302C6.75391 20.8682 6.75742 20.9069 6.76504 20.9444C6.77266 20.9819 6.78379 21.0188 6.79844 21.0539Z" fill="white"/>
<path d="M9.91523 21.0539C9.92988 21.0897 9.94805 21.1237 9.96914 21.1553C9.99023 21.1875 10.0148 21.2174 10.0418 21.2444C10.0688 21.2714 10.0986 21.296 10.1309 21.317C10.1625 21.3381 10.1965 21.3563 10.2322 21.3709C10.2674 21.3856 10.3043 21.3967 10.3418 21.4043C10.3793 21.4119 10.418 21.416 10.4561 21.416C10.4941 21.416 10.5328 21.4119 10.5703 21.4043C10.6078 21.3967 10.6447 21.3856 10.6799 21.3709C10.7156 21.3563 10.7496 21.3381 10.7813 21.317C10.8135 21.296 10.8434 21.2714 10.8703 21.2444C10.8973 21.2174 10.9219 21.1875 10.943 21.1553C10.9641 21.1237 10.9822 21.0897 10.9969 21.0539C11.0115 21.0188 11.0227 20.9819 11.0303 20.9444C11.0379 20.9069 11.042 20.8682 11.042 20.8302C11.042 20.7921 11.0379 20.7534 11.0303 20.7153C11.0232 20.6784 11.0115 20.6415 10.9969 20.6058C10.9822 20.5705 10.9641 20.5366 10.943 20.505C10.9219 20.4727 10.8973 20.4428 10.8703 20.4159C10.7344 20.2793 10.5316 20.2172 10.3418 20.2553C10.3043 20.2629 10.2674 20.2741 10.2316 20.2887C10.1965 20.3034 10.1625 20.3215 10.1309 20.3426C10.0986 20.3643 10.0688 20.3889 10.0418 20.4159C10.0148 20.4428 9.99023 20.4727 9.96914 20.505C9.94805 20.5366 9.92988 20.5705 9.91523 20.6058C9.90059 20.6415 9.88887 20.6784 9.88184 20.7153C9.87422 20.7534 9.87012 20.7921 9.87012 20.8302C9.87012 20.8682 9.87422 20.9069 9.88184 20.9444C9.88887 20.9819 9.90059 21.0188 9.91523 21.0539Z" fill="white"/>
<path d="M13.031 21.0539C13.0456 21.0897 13.0638 21.1237 13.0849 21.1553C13.106 21.1875 13.1306 21.2174 13.1575 21.2444C13.1845 21.2714 13.2144 21.296 13.2466 21.317C13.2782 21.3381 13.3122 21.3563 13.348 21.3709C13.3831 21.3856 13.42 21.3967 13.4575 21.4043C13.495 21.4119 13.5337 21.416 13.5718 21.416C13.6099 21.416 13.6485 21.4119 13.686 21.4043C13.7235 21.3967 13.7605 21.3856 13.7956 21.3709C13.8314 21.3563 13.8653 21.3381 13.897 21.317C13.9292 21.296 13.9591 21.2714 13.986 21.2444C14.013 21.2174 14.0376 21.1875 14.0587 21.1553C14.0798 21.1237 14.098 21.0897 14.1126 21.0539C14.1273 21.0188 14.139 20.9819 14.146 20.9444C14.1536 20.9069 14.1577 20.8682 14.1577 20.8302C14.1577 20.7921 14.1536 20.7534 14.146 20.7153C14.139 20.6784 14.1273 20.6415 14.1126 20.6058C14.098 20.5705 14.0798 20.5366 14.0587 20.505C14.0376 20.4727 14.013 20.4428 13.986 20.4159C13.8501 20.2793 13.6474 20.2172 13.4575 20.2553C13.42 20.2629 13.3831 20.2741 13.348 20.2887C13.3122 20.3034 13.2782 20.3215 13.2466 20.3426C13.2144 20.3643 13.1845 20.3889 13.1575 20.4159C13.1306 20.4428 13.106 20.4727 13.0849 20.505C13.0638 20.5366 13.0456 20.5705 13.031 20.6058C13.0163 20.6415 13.0052 20.6784 12.9976 20.7153C12.9899 20.7534 12.9858 20.7921 12.9858 20.8302C12.9858 20.8682 12.9899 20.9069 12.9976 20.9444C13.0052 20.9819 13.0163 21.0188 13.031 21.0539Z" fill="white"/>
<path d="M16.1472 21.054C16.1618 21.0897 16.18 21.1237 16.2011 21.1553C16.2222 21.1875 16.2468 21.2174 16.2737 21.2444C16.3007 21.2714 16.3306 21.296 16.3628 21.317C16.3944 21.3381 16.4284 21.3563 16.4642 21.3709C16.4993 21.3856 16.5362 21.3967 16.5737 21.4043C16.6112 21.412 16.6499 21.4161 16.688 21.4161C16.7261 21.4161 16.7647 21.412 16.8028 21.4043C16.8397 21.3967 16.8767 21.3856 16.9124 21.3709C16.9476 21.3563 16.9815 21.3381 17.0132 21.317C17.0454 21.296 17.0753 21.2714 17.1022 21.2444C17.1292 21.2174 17.1538 21.1875 17.1755 21.1553C17.1966 21.1237 17.2147 21.0897 17.2294 21.054C17.244 21.0188 17.2552 20.9819 17.2628 20.9444C17.2704 20.9069 17.2739 20.8682 17.2739 20.8302C17.2739 20.7921 17.2704 20.7534 17.2628 20.7153C17.2552 20.6784 17.244 20.6415 17.2294 20.6058C17.2147 20.5706 17.1966 20.5366 17.1755 20.505C17.1538 20.4727 17.1292 20.4428 17.1022 20.4159C17.0753 20.3889 17.0454 20.3643 17.0132 20.3426C16.9815 20.3215 16.9476 20.3034 16.9124 20.2887C16.8767 20.2741 16.8397 20.2629 16.8028 20.2553C16.7272 20.2401 16.6493 20.2401 16.5737 20.2553C16.5362 20.2629 16.4993 20.2741 16.4642 20.2887C16.4284 20.3034 16.3944 20.3215 16.3628 20.3426C16.3306 20.3643 16.3007 20.3889 16.2737 20.4159C16.2468 20.4428 16.2222 20.4727 16.2011 20.505C16.18 20.5366 16.1618 20.5706 16.1472 20.6058C16.1325 20.6415 16.1214 20.6784 16.1138 20.7153C16.1062 20.7534 16.1021 20.7921 16.1021 20.8302C16.1021 20.8682 16.1062 20.9069 16.1138 20.9444C16.1214 20.9819 16.1325 21.0189 16.1472 21.054Z" fill="white"/>
<path d="M7.85916 14.8103C7.87351 14.824 7.88834 14.8372 7.90416 14.8495C9.24965 15.8905 10.8403 16.4796 12.5287 16.5675C12.5407 16.5682 12.5528 16.5687 12.5648 16.5693C12.6183 16.5719 12.672 16.5739 12.7258 16.5755C12.7416 16.5759 12.7574 16.5765 12.7732 16.5769C12.8395 16.5785 12.9058 16.5795 12.9724 16.5795C13.0393 16.5795 13.1061 16.5785 13.1727 16.5769C13.188 16.5766 13.2031 16.576 13.2183 16.5755C13.2733 16.574 13.3282 16.5719 13.3831 16.5693C13.3936 16.5687 13.4041 16.5682 13.4146 16.5676C15.1306 16.4789 16.7426 15.8737 18.1005 14.8033C18.1191 14.7885 18.1366 14.7727 18.1531 14.756C20.0471 13.2355 21.2619 10.902 21.2619 8.28979C21.262 3.71877 17.5433 0 12.9724 0C8.4015 0 4.68262 3.71877 4.68262 8.28973C4.68262 10.9331 5.92621 13.2914 7.85916 14.8103ZM13.7335 15.3667C13.6972 15.3706 13.6608 15.3741 13.6244 15.3774C13.5841 15.381 13.5438 15.3847 13.5033 15.3877C13.4331 15.3928 13.3626 15.3969 13.292 15.4C13.2678 15.4011 13.2436 15.4019 13.2193 15.4027C13.1372 15.4055 13.055 15.4075 12.9723 15.4075C12.8908 15.4075 12.8096 15.4055 12.7285 15.4028C12.7046 15.402 12.6807 15.4011 12.6569 15.4001C12.5895 15.3972 12.5223 15.3933 12.4552 15.3886C12.4162 15.3858 12.3773 15.3824 12.3384 15.3789C12.2963 15.3752 12.2543 15.3713 12.2124 15.3669C12.1656 15.3619 12.1188 15.3567 12.0722 15.3508C12.064 15.3498 12.0558 15.3485 12.0475 15.3475C10.8663 15.1935 9.77523 14.7491 8.84851 14.0881V13.0273C8.84851 11.6312 9.54191 10.3948 10.6016 9.64178C11.264 10.1594 12.0963 10.4691 13.0001 10.4691C13.9039 10.4691 14.7363 10.1595 15.3986 9.64178C16.4583 10.3948 17.1517 11.6312 17.1517 13.0273V14.0475H17.1518C16.1709 14.7615 15.0016 15.2313 13.7335 15.3667ZM12.9724 1.17188C16.8972 1.17188 20.0902 4.36489 20.0902 8.28973C20.0902 10.084 19.4226 11.7251 18.3231 12.9783C18.3076 11.2674 17.4811 9.74684 16.21 8.78315C16.6467 8.15292 16.9035 7.38903 16.9035 6.5659C16.9035 6.37225 16.8891 6.17748 16.8607 5.987C16.8131 5.66696 16.5152 5.44612 16.1949 5.4937C15.8748 5.54133 15.654 5.83934 15.7016 6.15944C15.7215 6.29297 15.7316 6.42973 15.7316 6.5659C15.7316 7.16959 15.5344 7.72794 15.2014 8.18057C14.9313 8.54784 14.5717 8.84508 14.155 9.04032C13.804 9.20479 13.4128 9.29725 13.0003 9.29725C12.5878 9.29725 12.1966 9.20479 11.8456 9.04032C11.4289 8.84508 11.0693 8.54784 10.7992 8.18057C10.4662 7.72794 10.269 7.16965 10.269 6.5659C10.269 5.05987 11.4943 3.83461 13.0003 3.83461C13.2076 3.83461 13.414 3.85782 13.6139 3.90369C13.9297 3.97629 14.2438 3.77895 14.316 3.46348C14.3883 3.14807 14.1913 2.83377 13.8759 2.76147C13.5902 2.69596 13.2956 2.66274 13.0003 2.66274C10.8481 2.66274 9.09719 4.41369 9.09719 6.5659C9.09719 7.38903 9.35394 8.15292 9.79064 8.78315C8.50738 9.75604 7.67687 11.2964 7.67687 13.0273V13.0403C6.54449 11.7795 5.85455 10.1138 5.85455 8.28973C5.85449 4.36489 9.04756 1.17188 12.9724 1.17188Z" fill="white"/>
<path d="M14.8903 4.53343C14.905 4.56859 14.9231 4.60257 14.9442 4.63422C14.9653 4.66644 14.9899 4.69632 15.0169 4.72328C15.0438 4.75088 15.0737 4.7749 15.106 4.79652C15.1376 4.81761 15.1716 4.83584 15.2073 4.85049C15.2425 4.86513 15.2794 4.87621 15.3169 4.88383C15.3544 4.89144 15.3931 4.89496 15.4312 4.89496C15.4692 4.89496 15.5079 4.89138 15.5454 4.88383C15.5829 4.87621 15.6198 4.86513 15.6556 4.85049C15.6907 4.83584 15.7247 4.81761 15.7563 4.79652C15.7886 4.7749 15.8185 4.75088 15.8454 4.72328C15.8724 4.69632 15.897 4.66644 15.9181 4.63422C15.9392 4.60257 15.9573 4.56859 15.972 4.53343C15.9866 4.49769 15.9983 4.46136 16.0054 4.42386C16.013 4.38578 16.0171 4.34769 16.0171 4.30902C16.0171 4.27093 16.013 4.2322 16.0054 4.19476C15.9983 4.15726 15.9866 4.12029 15.972 4.08519C15.9573 4.05009 15.9392 4.01552 15.9181 3.98388C15.897 3.9516 15.8724 3.92171 15.8454 3.89476C15.8185 3.86781 15.7886 3.8432 15.7563 3.8221C15.7247 3.80107 15.6907 3.78285 15.6556 3.7682C15.6198 3.75355 15.5829 3.74248 15.5454 3.73486C15.4698 3.71957 15.3925 3.71957 15.3169 3.73486C15.2794 3.74248 15.2425 3.75355 15.2073 3.7682C15.1716 3.78285 15.1376 3.80107 15.106 3.8221C15.0737 3.8432 15.0438 3.86781 15.0169 3.89476C14.9899 3.92171 14.9653 3.9516 14.9442 3.98388C14.9231 4.01552 14.905 4.05009 14.8903 4.08519C14.8757 4.12029 14.8645 4.15726 14.8569 4.19476C14.8493 4.23226 14.8452 4.27093 14.8452 4.30902C14.8452 4.34769 14.8493 4.38578 14.8569 4.42386C14.8645 4.46136 14.8757 4.49769 14.8903 4.53343Z" fill="white"/>
</svg>
