<svg width="22" height="22" viewBox="0 0 22 22" fill="none" xmlns="http://www.w3.org/2000/svg">
<path d="M8.22896 22C7.80183 22.001 7.37994 21.9038 6.99442 21.7157C6.6089 21.5275 6.26959 21.2531 6.00153 20.9127L0.687548 14.2499C0.200389 13.6389 -0.0429883 12.8619 0.00624134 12.0748C0.0554709 11.2877 0.393666 10.5489 0.952978 10.0064C1.51229 9.46387 2.25134 9.1579 3.02187 9.14985C3.7924 9.1418 4.5374 9.43226 5.10742 9.96296L8.44042 13.0672L19.2434 0.574594C19.3779 0.408407 19.5442 0.272047 19.732 0.173846C19.9198 0.0756442 20.1252 0.017664 20.3356 0.00344772C20.546 -0.0107685 20.7571 0.0190779 20.9559 0.0911629C21.1546 0.163248 21.337 0.276058 21.4917 0.4227C22.0284 0.931319 22.1595 1.78501 21.7917 2.36918L10.7523 20.5659C10.7505 20.5689 10.7486 20.5719 10.7467 20.5749C10.2056 21.4252 9.34607 21.9431 8.38846 21.9957C8.3351 21.9986 8.28193 22 8.22896 22ZM3.05214 10.1329C2.65711 10.1341 2.27046 10.2497 1.93693 10.4663C1.60341 10.683 1.33662 10.9918 1.16745 11.3572C0.998283 11.7226 0.933635 12.1295 0.980989 12.5309C1.02834 12.9323 1.18576 13.3118 1.43504 13.6254L6.74936 20.2884C6.93885 20.5291 7.18171 20.7201 7.45778 20.8455C7.73385 20.9709 8.03516 21.0271 8.33669 21.0094C8.98171 20.9739 9.5641 20.6207 9.93536 20.0401L20.9743 1.84431C20.9761 1.84132 20.978 1.83831 20.9799 1.83528C21.0835 1.67232 21.0499 1.34997 20.8362 1.14736C20.7774 1.0917 20.7082 1.04894 20.6327 1.02171C20.5572 0.994475 20.4771 0.983347 20.3973 0.989009C20.3174 0.994672 20.2395 1.017 20.1685 1.05463C20.0974 1.09226 20.0345 1.14439 19.9839 1.2078C19.9799 1.21274 19.9758 1.21768 19.9717 1.22261L8.8388 14.0966C8.79644 14.1456 8.74499 14.1855 8.68743 14.2139C8.62988 14.2424 8.56737 14.2589 8.50355 14.2624C8.43972 14.266 8.37584 14.2565 8.31562 14.2345C8.25541 14.2126 8.20005 14.1786 8.15277 14.1346L4.45796 10.6933C4.07424 10.3333 3.5727 10.1334 3.05214 10.1329Z" fill="#4D7C73"/>
</svg>
