<svg width="22" height="22" viewBox="0 0 22 22" fill="none" xmlns="http://www.w3.org/2000/svg">
<g clip-path="url(#clip0_252_2628)">
<path fill-rule="evenodd" clip-rule="evenodd" d="M21.8077 8.10757L18.922 5.81391V1.55921C18.922 0.699436 18.2026 0 17.318 0H13.0952C12.8059 0 12.5714 0.227973 12.5714 0.509259C12.5714 0.790545 12.8059 1.01852 13.0952 1.01852H17.318C17.6248 1.01852 17.8744 1.26121 17.8744 1.55921V10.5982L11 15.6796L4.12561 10.5982V6.0576V1.55921C4.12561 1.26121 4.37524 1.01852 4.68196 1.01852H8.90476C9.19408 1.01852 9.42857 0.790545 9.42857 0.509259C9.42857 0.227973 9.19408 0 8.90476 0H4.68196C3.79741 0 3.07799 0.699436 3.07799 1.55921V5.81391L0.192336 8.10757C0.0705915 8.20425 0 8.34907 0 8.50184V14.1556V15.1741V20.4408C0 21.3006 0.71942 22 1.60376 22H20.3962C21.2806 22 22 21.3006 22 20.4408V8.50184C22 8.34907 21.9294 8.20425 21.8077 8.10757ZM14.7547 14.1837L20.9524 20.2092V9.60252L14.7547 14.1837ZM20.6784 8.52552L18.922 7.12943V9.82373L20.6784 8.52552ZM11.3172 16.7248C11.2234 16.794 11.1117 16.8286 11 16.8286C10.8883 16.8286 10.7766 16.794 10.6831 16.7248L8.08692 14.8059L1.73491 20.9815H20.2651L13.9131 14.8059L11.3172 16.7248ZM7.24535 14.1837L1.04762 9.60252V20.2092L7.24535 14.1837ZM1.3216 8.52552L3.07799 9.82373V7.12943L1.3216 8.52552Z" fill="#4D7C73"/>
<path d="M10.9999 0.733333C11.1927 0.733333 11.3821 0.694089 11.5184 0.625911C11.6548 0.557734 11.7333 0.46306 11.7333 0.366667C11.7333 0.270273 11.6548 0.175599 11.5184 0.107422C11.3821 0.0392448 11.1927 0 10.9999 0C10.8071 0 10.6178 0.0392448 10.4814 0.107422C10.3451 0.175599 10.2666 0.270273 10.2666 0.366667C10.2666 0.46306 10.3451 0.557734 10.4814 0.625911C10.6178 0.694089 10.8071 0.733333 10.9999 0.733333Z" fill="#4D7C73"/>
<path d="M6.6001 7.33324C6.6001 9.75943 8.57385 11.7333 11.0001 11.7333C13.4263 11.7333 15.4001 9.75943 15.4001 7.33324C15.4001 4.90705 13.4263 2.93335 11.0001 2.93335C8.57385 2.93335 6.6001 4.90705 6.6001 7.33324ZM14.3155 7.33324C14.3155 9.16141 12.8283 10.6487 11.0001 10.6487C9.17188 10.6487 7.68474 9.16141 7.68474 7.33324C7.68474 5.50507 9.17188 4.01796 11.0001 4.01796C12.8283 4.01796 14.3155 5.50529 14.3155 7.33324Z" fill="#4D7C73"/>
<path d="M9.89428 6.80199C9.64383 6.57722 9.2381 6.57722 8.98764 6.80199C8.73719 7.02655 8.73719 7.39091 8.98764 7.61569L10.1194 8.63145C10.2447 8.74384 10.4087 8.80003 10.5728 8.80003C10.7368 8.80003 10.9008 8.74384 11.0261 8.63145L13.0122 6.84897C13.2624 6.62442 13.2624 6.26006 13.0122 6.03528C12.7617 5.81051 12.3557 5.81051 12.1053 6.03528L10.5728 7.41069L9.89428 6.80199Z" fill="#4D7C73"/>
</g>
<defs>
<clipPath id="clip0_252_2628">
<rect width="22" height="22" fill="white"/>
</clipPath>
</defs>
</svg>
