<svg width="22" height="30" viewBox="0 0 22 30" fill="none" xmlns="http://www.w3.org/2000/svg">
<path d="M11 3.75C9.51665 3.75 8.0666 4.18987 6.83323 5.01398C5.59986 5.83809 4.63856 7.00943 4.07091 8.37987C3.50325 9.75032 3.35472 11.2583 3.64411 12.7132C3.9335 14.168 4.64781 15.5044 5.6967 16.5533C6.7456 17.6022 8.08197 18.3165 9.53683 18.6059C10.9917 18.8953 12.4997 18.7468 13.8701 18.1791C15.2406 17.6114 16.4119 16.6501 17.236 15.4168C18.0601 14.1834 18.5 12.7334 18.5 11.25C18.4974 9.26168 17.7064 7.35553 16.3004 5.94958C14.8945 4.54362 12.9883 3.7526 11 3.75ZM11 17.8125C9.70207 17.8125 8.43327 17.4276 7.35408 16.7065C6.27488 15.9854 5.43375 14.9605 4.93704 13.7614C4.44034 12.5622 4.31038 11.2427 4.5636 9.96972C4.81682 8.69672 5.44183 7.52739 6.35962 6.60961C7.2774 5.69183 8.44673 5.06681 9.71973 4.8136C10.9927 4.56038 12.3122 4.69034 13.5114 5.18704C14.7105 5.68374 15.7354 6.52487 16.4565 7.60407C17.1776 8.68327 17.5625 9.95206 17.5625 11.25C17.5606 12.9899 16.8686 14.658 15.6383 15.8883C14.408 17.1186 12.7399 17.8106 11 17.8125Z" fill="#4D7C73"/>
<path d="M14.1781 23.5781C17.1359 20.2641 21.3125 14.9297 21.3125 11.25C21.3125 8.51496 20.226 5.89193 18.292 3.95796C16.3581 2.02399 13.735 0.9375 11 0.9375C8.26496 0.9375 5.64193 2.02399 3.70796 3.95796C1.77399 5.89193 0.6875 8.51496 0.6875 11.25C0.6875 14.9297 4.86406 20.2641 7.82187 23.5781C5.62344 23.7797 1.15625 24.4172 1.15625 26.25C1.15625 28.1812 6.26094 29.0625 11 29.0625C15.7391 29.0625 20.8438 28.1812 20.8438 26.25C20.8438 24.4172 16.3766 23.7797 14.1781 23.5781ZM1.625 11.25C1.625 8.7636 2.61272 6.37903 4.37087 4.62087C6.12903 2.86272 8.5136 1.875 11 1.875C13.4864 1.875 15.871 2.86272 17.6291 4.62087C19.3873 6.37903 20.375 8.7636 20.375 11.25C20.375 15.8813 12.6922 23.8828 11 25.5891C9.30781 23.8828 1.625 15.8813 1.625 11.25ZM11 28.125C5.23906 28.125 2.09375 26.8875 2.09375 26.25C2.09375 25.7812 4.07188 24.7547 8.61406 24.4547C9.73906 25.6734 10.5594 26.475 10.6719 26.5875C10.7603 26.6718 10.8778 26.7188 11 26.7188C11.1222 26.7188 11.2397 26.6718 11.3281 26.5875C11.4406 26.475 12.2609 25.6734 13.3859 24.4547C17.9281 24.7547 19.9062 25.7812 19.9062 26.25C19.9062 26.8875 16.7609 28.125 11 28.125Z" fill="#4D7C73"/>
<path d="M15.2047 9.2625L14.7359 7.3875C14.7108 7.28587 14.6524 7.19558 14.57 7.13102C14.4876 7.06645 14.3859 7.03133 14.2812 7.03125H7.71875C7.61406 7.03133 7.51242 7.06645 7.43001 7.13102C7.34761 7.19558 7.28919 7.28587 7.26406 7.3875L6.79531 9.2625C6.78774 9.29958 6.78304 9.33719 6.78125 9.375V15C6.78125 15.1243 6.83064 15.2435 6.91854 15.3315C7.00645 15.4194 7.12568 15.4688 7.25 15.4688H14.75C14.8743 15.4688 14.9935 15.4194 15.0815 15.3315C15.1694 15.2435 15.2188 15.1243 15.2188 15V9.375C15.217 9.33719 15.2123 9.29958 15.2047 9.2625ZM12.4062 7.96875H13.9156L14.15 8.90625H12.4062V7.96875ZM10.5312 7.96875H11.4688V8.90625H10.5312V7.96875ZM10.5312 9.84375H11.4688V10.7812H10.5312V9.84375ZM8.08438 7.96875H9.59375V8.90625H7.85L8.08438 7.96875ZM14.2812 14.5312H7.71875V9.84375H9.59375V11.25C9.59375 11.3743 9.64314 11.4935 9.73104 11.5815C9.81895 11.6694 9.93818 11.7188 10.0625 11.7188H11.9375C12.0618 11.7188 12.181 11.6694 12.269 11.5815C12.3569 11.4935 12.4062 11.3743 12.4062 11.25V9.84375H14.2812V14.5312Z" fill="#4D7C73"/>
<path d="M11.9375 13.125C11.8132 13.125 11.694 13.1744 11.606 13.2623C11.5181 13.3502 11.4688 13.4694 11.4688 13.5938C11.4688 13.7181 11.5181 13.8373 11.606 13.9252C11.694 14.0131 11.8132 14.0625 11.9375 14.0625H13.3438C13.4681 14.0625 13.5873 14.0131 13.6752 13.9252C13.7631 13.8373 13.8125 13.7181 13.8125 13.5938C13.8125 13.4694 13.7631 13.3502 13.6752 13.2623C13.5873 13.1744 13.4681 13.125 13.3438 13.125H11.9375Z" fill="#4D7C73"/>
</svg>
