<svg width="22" height="22" viewBox="0 0 22 22" fill="none" xmlns="http://www.w3.org/2000/svg">
<g clip-path="url(#clip0_252_2642)">
<path d="M17.7058 11.1534C17.6253 11.0731 17.5293 11.0093 17.4234 10.9656C17.3174 10.9219 17.2036 10.8992 17.0886 10.8989C16.9736 10.8986 16.8597 10.9207 16.7535 10.9638C16.6473 11.0069 16.5509 11.0702 16.4701 11.1501C16.3892 11.2299 16.3254 11.3247 16.2824 11.4288C16.2394 11.533 16.2181 11.6444 16.2197 11.7567C16.2213 11.869 16.2457 11.9799 16.2916 12.0828C16.3375 12.1858 16.404 12.2788 16.4871 12.3564C17.2223 13.0628 17.8057 13.9055 18.2029 14.835C18.6001 15.7645 18.8031 16.7621 18.8001 17.7693C18.8001 18.8042 15.7617 20.3077 11.0001 20.3077C6.2386 20.3077 3.20016 18.8034 3.20016 17.7676C3.19725 16.7673 3.39757 15.7765 3.78953 14.8523C4.18149 13.9282 4.75731 13.0891 5.48365 12.3837C5.5658 12.3055 5.63123 12.2122 5.67614 12.1091C5.72106 12.006 5.74456 11.8953 5.74528 11.7833C5.74601 11.6712 5.72395 11.5602 5.68038 11.4566C5.63681 11.3529 5.57259 11.2588 5.49146 11.1796C5.41033 11.1004 5.3139 11.0377 5.20776 10.9951C5.10162 10.9526 4.98788 10.931 4.87315 10.9318C4.75841 10.9325 4.64497 10.9554 4.53939 10.9993C4.43381 11.0431 4.3382 11.107 4.2581 11.1872C3.37014 12.0496 2.66621 13.0754 2.18709 14.2052C1.70796 15.335 1.46316 16.5464 1.46684 17.7693C1.46684 20.5172 6.37822 22 11.0001 22C15.622 22 20.5334 20.5172 20.5334 17.7693C20.5373 16.5382 20.2891 15.3188 19.8035 14.1827C19.318 13.0465 18.6047 12.0166 17.7058 11.1534V11.1534Z" fill="#4D7C73"/>
<path d="M11.0002 11.8461C12.2001 11.8461 13.373 11.4988 14.3707 10.8479C15.3683 10.1971 16.1459 9.27203 16.6051 8.18974C17.0642 7.10744 17.1844 5.9165 16.9503 4.76754C16.7162 3.61858 16.1384 2.56319 15.29 1.73483C14.4416 0.906474 13.3606 0.342356 12.1838 0.113813C11.007 -0.11473 9.78716 0.00256637 8.67863 0.45087C7.5701 0.899173 6.62262 1.65835 5.95601 2.63239C5.2894 3.60644 4.93359 4.7516 4.93359 5.92307C4.93545 7.49341 5.57521 8.99892 6.71252 10.1093C7.84983 11.2197 9.39183 11.8443 11.0002 11.8461ZM11.0002 1.69231C11.8573 1.69231 12.6951 1.94044 13.4077 2.40532C14.1203 2.8702 14.6757 3.53096 15.0037 4.30403C15.3317 5.0771 15.4175 5.92777 15.2503 6.74845C15.0831 7.56914 14.6704 8.32299 14.0643 8.91468C13.4583 9.50636 12.6862 9.9093 11.8456 10.0725C11.005 10.2358 10.1338 10.152 9.34194 9.83179C8.55014 9.51157 7.87336 8.96931 7.39721 8.27356C6.92106 7.57781 6.66692 6.75984 6.66692 5.92307C6.66827 4.80141 7.12525 3.72607 7.93761 2.93293C8.74997 2.13979 9.85138 1.69363 11.0002 1.69231V1.69231Z" fill="#4D7C73"/>
</g>
<defs>
<clipPath id="clip0_252_2642">
<rect width="22" height="22" fill="white"/>
</clipPath>
</defs>
</svg>
